<mxfile host="app.diagrams.net" modified="2023-11-26T13:48:17.485Z" agent="Mozilla/5.0 (Windows NT 10.0; Win64; x64) AppleWebKit/537.36 (KHTML, like Gecko) Chrome/119.0.0.0 Safari/537.36" etag="YzZsKGSImUE1TmjA7BcO" version="22.1.4" type="device">
  <diagram name="Pagina-1" id="-08Q6rQdKl1w862VNEAf">
    <mxGraphModel dx="712" dy="748" grid="1" gridSize="10" guides="1" tooltips="1" connect="1" arrows="1" fold="1" page="1" pageScale="1" pageWidth="827" pageHeight="1169" math="0" shadow="0">
      <root>
        <mxCell id="0" />
        <mxCell id="1" parent="0" />
        <mxCell id="BphLosTeDJoORmhjXPxz-1" value="" style="rounded=0;whiteSpace=wrap;html=1;" vertex="1" parent="1">
          <mxGeometry x="270" y="210" width="600" height="750" as="geometry" />
        </mxCell>
        <mxCell id="BphLosTeDJoORmhjXPxz-2" value="CodeKataBattle system" style="text;html=1;strokeColor=none;fillColor=none;align=center;verticalAlign=middle;whiteSpace=wrap;rounded=0;fontSize=26;fontStyle=1" vertex="1" parent="1">
          <mxGeometry x="540" y="240" width="60" height="30" as="geometry" />
        </mxCell>
        <mxCell id="BphLosTeDJoORmhjXPxz-3" value="Sign up" style="ellipse;whiteSpace=wrap;html=1;fontSize=14;" vertex="1" parent="1">
          <mxGeometry x="310" y="250" width="140" height="60" as="geometry" />
        </mxCell>
        <mxCell id="BphLosTeDJoORmhjXPxz-55" style="edgeStyle=orthogonalEdgeStyle;rounded=0;orthogonalLoop=1;jettySize=auto;html=1;exitX=1;exitY=1;exitDx=0;exitDy=0;entryX=1;entryY=0;entryDx=0;entryDy=0;dashed=1;endArrow=openThin;endFill=0;" edge="1" parent="1" source="BphLosTeDJoORmhjXPxz-4" target="BphLosTeDJoORmhjXPxz-5">
          <mxGeometry relative="1" as="geometry">
            <Array as="points">
              <mxPoint x="470" y="381" />
              <mxPoint x="470" y="419" />
            </Array>
          </mxGeometry>
        </mxCell>
        <mxCell id="BphLosTeDJoORmhjXPxz-58" value="&amp;lt;&amp;lt;extends&amp;gt;&amp;gt;" style="edgeLabel;html=1;align=center;verticalAlign=middle;resizable=0;points=[];" vertex="1" connectable="0" parent="BphLosTeDJoORmhjXPxz-55">
          <mxGeometry x="-0.0169" y="1" relative="1" as="geometry">
            <mxPoint as="offset" />
          </mxGeometry>
        </mxCell>
        <mxCell id="BphLosTeDJoORmhjXPxz-4" value="Join battle" style="ellipse;whiteSpace=wrap;html=1;fontSize=14;" vertex="1" parent="1">
          <mxGeometry x="310" y="330" width="140" height="60" as="geometry" />
        </mxCell>
        <mxCell id="BphLosTeDJoORmhjXPxz-38" style="edgeStyle=orthogonalEdgeStyle;rounded=0;orthogonalLoop=1;jettySize=auto;html=1;exitX=1;exitY=0.5;exitDx=0;exitDy=0;entryX=0.5;entryY=0;entryDx=0;entryDy=0;dashed=1;endArrow=openThin;endFill=0;" edge="1" parent="1" source="BphLosTeDJoORmhjXPxz-5" target="BphLosTeDJoORmhjXPxz-35">
          <mxGeometry relative="1" as="geometry" />
        </mxCell>
        <mxCell id="BphLosTeDJoORmhjXPxz-48" value="&amp;lt;&amp;lt;include&amp;gt;&amp;gt;" style="edgeLabel;html=1;align=center;verticalAlign=middle;resizable=0;points=[];" vertex="1" connectable="0" parent="BphLosTeDJoORmhjXPxz-38">
          <mxGeometry x="0.1462" relative="1" as="geometry">
            <mxPoint x="-24" as="offset" />
          </mxGeometry>
        </mxCell>
        <mxCell id="BphLosTeDJoORmhjXPxz-5" value="Join tournament" style="ellipse;whiteSpace=wrap;html=1;fontSize=14;" vertex="1" parent="1">
          <mxGeometry x="310" y="410" width="140" height="60" as="geometry" />
        </mxCell>
        <mxCell id="BphLosTeDJoORmhjXPxz-39" style="edgeStyle=orthogonalEdgeStyle;rounded=0;orthogonalLoop=1;jettySize=auto;html=1;exitX=1;exitY=0.5;exitDx=0;exitDy=0;entryX=0;entryY=0.5;entryDx=0;entryDy=0;dashed=1;endArrow=openThin;endFill=0;" edge="1" parent="1" source="BphLosTeDJoORmhjXPxz-6" target="BphLosTeDJoORmhjXPxz-35">
          <mxGeometry relative="1" as="geometry" />
        </mxCell>
        <mxCell id="BphLosTeDJoORmhjXPxz-49" value="&amp;lt;&amp;lt;include&amp;gt;&amp;gt;" style="edgeLabel;html=1;align=center;verticalAlign=middle;resizable=0;points=[];" vertex="1" connectable="0" parent="BphLosTeDJoORmhjXPxz-39">
          <mxGeometry x="0.52" relative="1" as="geometry">
            <mxPoint x="-5" as="offset" />
          </mxGeometry>
        </mxCell>
        <mxCell id="BphLosTeDJoORmhjXPxz-6" value="Visit profile page" style="ellipse;whiteSpace=wrap;html=1;fontSize=14;" vertex="1" parent="1">
          <mxGeometry x="310" y="490" width="140" height="60" as="geometry" />
        </mxCell>
        <mxCell id="BphLosTeDJoORmhjXPxz-40" style="edgeStyle=orthogonalEdgeStyle;rounded=0;orthogonalLoop=1;jettySize=auto;html=1;exitX=1;exitY=0.5;exitDx=0;exitDy=0;entryX=0;entryY=1;entryDx=0;entryDy=0;dashed=1;endArrow=openThin;endFill=0;" edge="1" parent="1" source="BphLosTeDJoORmhjXPxz-7" target="BphLosTeDJoORmhjXPxz-35">
          <mxGeometry relative="1" as="geometry" />
        </mxCell>
        <mxCell id="BphLosTeDJoORmhjXPxz-50" value="&amp;lt;&amp;lt;include&amp;gt;&amp;gt;" style="edgeLabel;html=1;align=center;verticalAlign=middle;resizable=0;points=[];" vertex="1" connectable="0" parent="BphLosTeDJoORmhjXPxz-40">
          <mxGeometry x="0.2477" y="-1" relative="1" as="geometry">
            <mxPoint x="-18" y="-1" as="offset" />
          </mxGeometry>
        </mxCell>
        <mxCell id="BphLosTeDJoORmhjXPxz-57" style="edgeStyle=orthogonalEdgeStyle;rounded=0;orthogonalLoop=1;jettySize=auto;html=1;exitX=1;exitY=0;exitDx=0;exitDy=0;entryX=1;entryY=1;entryDx=0;entryDy=0;dashed=1;endArrow=openThin;endFill=0;" edge="1" parent="1" source="BphLosTeDJoORmhjXPxz-7" target="BphLosTeDJoORmhjXPxz-6">
          <mxGeometry relative="1" as="geometry">
            <Array as="points">
              <mxPoint x="470" y="579" />
              <mxPoint x="470" y="541" />
            </Array>
          </mxGeometry>
        </mxCell>
        <mxCell id="BphLosTeDJoORmhjXPxz-59" value="&amp;lt;&amp;lt;extends&amp;gt;&amp;gt;" style="edgeLabel;html=1;align=center;verticalAlign=middle;resizable=0;points=[];" vertex="1" connectable="0" parent="BphLosTeDJoORmhjXPxz-57">
          <mxGeometry x="0.0506" relative="1" as="geometry">
            <mxPoint as="offset" />
          </mxGeometry>
        </mxCell>
        <mxCell id="BphLosTeDJoORmhjXPxz-7" value="Consult their tournament score" style="ellipse;whiteSpace=wrap;html=1;fontSize=14;" vertex="1" parent="1">
          <mxGeometry x="310" y="570" width="140" height="60" as="geometry" />
        </mxCell>
        <mxCell id="BphLosTeDJoORmhjXPxz-56" style="edgeStyle=orthogonalEdgeStyle;rounded=0;orthogonalLoop=1;jettySize=auto;html=1;exitX=1;exitY=0;exitDx=0;exitDy=0;entryX=1;entryY=0;entryDx=0;entryDy=0;dashed=1;endArrow=openThin;endFill=0;" edge="1" parent="1" source="BphLosTeDJoORmhjXPxz-8" target="BphLosTeDJoORmhjXPxz-6">
          <mxGeometry relative="1" as="geometry">
            <Array as="points">
              <mxPoint x="560" y="659" />
              <mxPoint x="560" y="499" />
            </Array>
          </mxGeometry>
        </mxCell>
        <mxCell id="BphLosTeDJoORmhjXPxz-60" value="&amp;lt;&amp;lt;extends&amp;gt;&amp;gt;" style="edgeLabel;html=1;align=center;verticalAlign=middle;resizable=0;points=[];" vertex="1" connectable="0" parent="BphLosTeDJoORmhjXPxz-56">
          <mxGeometry x="0.1986" y="1" relative="1" as="geometry">
            <mxPoint as="offset" />
          </mxGeometry>
        </mxCell>
        <mxCell id="BphLosTeDJoORmhjXPxz-8" value="Consult obtained badges" style="ellipse;whiteSpace=wrap;html=1;fontSize=14;" vertex="1" parent="1">
          <mxGeometry x="310" y="650" width="140" height="60" as="geometry" />
        </mxCell>
        <mxCell id="BphLosTeDJoORmhjXPxz-42" style="edgeStyle=orthogonalEdgeStyle;rounded=0;orthogonalLoop=1;jettySize=auto;html=1;exitX=1;exitY=0.5;exitDx=0;exitDy=0;entryX=0.5;entryY=1;entryDx=0;entryDy=0;dashed=1;endArrow=openThin;endFill=0;" edge="1" parent="1" source="BphLosTeDJoORmhjXPxz-9" target="BphLosTeDJoORmhjXPxz-35">
          <mxGeometry relative="1" as="geometry" />
        </mxCell>
        <mxCell id="BphLosTeDJoORmhjXPxz-52" value="&amp;lt;&amp;lt;include&amp;gt;&amp;gt;" style="edgeLabel;html=1;align=center;verticalAlign=middle;resizable=0;points=[];" vertex="1" connectable="0" parent="BphLosTeDJoORmhjXPxz-42">
          <mxGeometry x="-0.1569" y="1" relative="1" as="geometry">
            <mxPoint x="-49" y="1" as="offset" />
          </mxGeometry>
        </mxCell>
        <mxCell id="BphLosTeDJoORmhjXPxz-9" value="Upload new solution on forked repository" style="ellipse;whiteSpace=wrap;html=1;fontSize=14;" vertex="1" parent="1">
          <mxGeometry x="310" y="730" width="170" height="60" as="geometry" />
        </mxCell>
        <mxCell id="BphLosTeDJoORmhjXPxz-10" value="Respond to an invite" style="ellipse;whiteSpace=wrap;html=1;fontSize=14;" vertex="1" parent="1">
          <mxGeometry x="310" y="810" width="140" height="60" as="geometry" />
        </mxCell>
        <mxCell id="BphLosTeDJoORmhjXPxz-44" style="edgeStyle=orthogonalEdgeStyle;rounded=0;orthogonalLoop=1;jettySize=auto;html=1;exitX=1;exitY=0.5;exitDx=0;exitDy=0;entryX=1;entryY=1;entryDx=0;entryDy=0;dashed=1;endArrow=openThin;endFill=0;" edge="1" parent="1" source="BphLosTeDJoORmhjXPxz-11" target="BphLosTeDJoORmhjXPxz-35">
          <mxGeometry relative="1" as="geometry" />
        </mxCell>
        <mxCell id="BphLosTeDJoORmhjXPxz-54" value="&amp;lt;&amp;lt;include&amp;gt;&amp;gt;" style="edgeLabel;html=1;align=center;verticalAlign=middle;resizable=0;points=[];" vertex="1" connectable="0" parent="BphLosTeDJoORmhjXPxz-44">
          <mxGeometry x="-0.3232" relative="1" as="geometry">
            <mxPoint x="-60" as="offset" />
          </mxGeometry>
        </mxCell>
        <mxCell id="BphLosTeDJoORmhjXPxz-11" value="Send an invite" style="ellipse;whiteSpace=wrap;html=1;fontSize=14;" vertex="1" parent="1">
          <mxGeometry x="310" y="890" width="140" height="60" as="geometry" />
        </mxCell>
        <mxCell id="BphLosTeDJoORmhjXPxz-13" style="edgeStyle=orthogonalEdgeStyle;rounded=0;orthogonalLoop=1;jettySize=auto;html=1;exitX=0.5;exitY=0.5;exitDx=0;exitDy=0;exitPerimeter=0;entryX=0;entryY=0.5;entryDx=0;entryDy=0;" edge="1" parent="1" source="BphLosTeDJoORmhjXPxz-12" target="BphLosTeDJoORmhjXPxz-8">
          <mxGeometry relative="1" as="geometry" />
        </mxCell>
        <mxCell id="BphLosTeDJoORmhjXPxz-25" value="+initiate" style="edgeLabel;html=1;align=center;verticalAlign=middle;resizable=0;points=[];" vertex="1" connectable="0" parent="BphLosTeDJoORmhjXPxz-13">
          <mxGeometry x="0.1892" y="2" relative="1" as="geometry">
            <mxPoint x="-5" y="2" as="offset" />
          </mxGeometry>
        </mxCell>
        <mxCell id="BphLosTeDJoORmhjXPxz-14" style="edgeStyle=orthogonalEdgeStyle;rounded=0;orthogonalLoop=1;jettySize=auto;html=1;exitX=0.5;exitY=0.5;exitDx=0;exitDy=0;exitPerimeter=0;entryX=0;entryY=0.5;entryDx=0;entryDy=0;" edge="1" parent="1" source="BphLosTeDJoORmhjXPxz-12" target="BphLosTeDJoORmhjXPxz-7">
          <mxGeometry relative="1" as="geometry">
            <Array as="points">
              <mxPoint x="180" y="680" />
              <mxPoint x="180" y="600" />
            </Array>
          </mxGeometry>
        </mxCell>
        <mxCell id="BphLosTeDJoORmhjXPxz-24" value="+initiate" style="edgeLabel;html=1;align=center;verticalAlign=middle;resizable=0;points=[];" vertex="1" connectable="0" parent="BphLosTeDJoORmhjXPxz-14">
          <mxGeometry x="0.4491" y="1" relative="1" as="geometry">
            <mxPoint x="-7" y="1" as="offset" />
          </mxGeometry>
        </mxCell>
        <mxCell id="BphLosTeDJoORmhjXPxz-15" style="edgeStyle=orthogonalEdgeStyle;rounded=0;orthogonalLoop=1;jettySize=auto;html=1;exitX=0.5;exitY=0.5;exitDx=0;exitDy=0;exitPerimeter=0;entryX=0;entryY=0.5;entryDx=0;entryDy=0;" edge="1" parent="1" source="BphLosTeDJoORmhjXPxz-12" target="BphLosTeDJoORmhjXPxz-6">
          <mxGeometry relative="1" as="geometry">
            <Array as="points">
              <mxPoint x="180" y="680" />
              <mxPoint x="180" y="520" />
            </Array>
          </mxGeometry>
        </mxCell>
        <mxCell id="BphLosTeDJoORmhjXPxz-23" value="+initiate" style="edgeLabel;html=1;align=center;verticalAlign=middle;resizable=0;points=[];" vertex="1" connectable="0" parent="BphLosTeDJoORmhjXPxz-15">
          <mxGeometry x="0.5478" y="2" relative="1" as="geometry">
            <mxPoint as="offset" />
          </mxGeometry>
        </mxCell>
        <mxCell id="BphLosTeDJoORmhjXPxz-16" style="edgeStyle=orthogonalEdgeStyle;rounded=0;orthogonalLoop=1;jettySize=auto;html=1;exitX=0.5;exitY=0.5;exitDx=0;exitDy=0;exitPerimeter=0;entryX=0;entryY=0.5;entryDx=0;entryDy=0;" edge="1" parent="1" source="BphLosTeDJoORmhjXPxz-12" target="BphLosTeDJoORmhjXPxz-5">
          <mxGeometry relative="1" as="geometry">
            <Array as="points">
              <mxPoint x="180" y="680" />
              <mxPoint x="180" y="440" />
            </Array>
          </mxGeometry>
        </mxCell>
        <mxCell id="BphLosTeDJoORmhjXPxz-22" value="+initiate" style="edgeLabel;html=1;align=center;verticalAlign=middle;resizable=0;points=[];" vertex="1" connectable="0" parent="BphLosTeDJoORmhjXPxz-16">
          <mxGeometry x="0.6518" y="1" relative="1" as="geometry">
            <mxPoint x="-6" y="1" as="offset" />
          </mxGeometry>
        </mxCell>
        <mxCell id="BphLosTeDJoORmhjXPxz-17" style="edgeStyle=orthogonalEdgeStyle;rounded=0;orthogonalLoop=1;jettySize=auto;html=1;exitX=0.5;exitY=0.5;exitDx=0;exitDy=0;exitPerimeter=0;entryX=0;entryY=0.5;entryDx=0;entryDy=0;" edge="1" parent="1" source="BphLosTeDJoORmhjXPxz-12" target="BphLosTeDJoORmhjXPxz-4">
          <mxGeometry relative="1" as="geometry">
            <Array as="points">
              <mxPoint x="180" y="680" />
              <mxPoint x="180" y="360" />
            </Array>
          </mxGeometry>
        </mxCell>
        <mxCell id="BphLosTeDJoORmhjXPxz-21" value="+initiate" style="edgeLabel;html=1;align=center;verticalAlign=middle;resizable=0;points=[];" vertex="1" connectable="0" parent="BphLosTeDJoORmhjXPxz-17">
          <mxGeometry x="0.7545" y="-4" relative="1" as="geometry">
            <mxPoint x="-18" y="-4" as="offset" />
          </mxGeometry>
        </mxCell>
        <mxCell id="BphLosTeDJoORmhjXPxz-18" style="edgeStyle=orthogonalEdgeStyle;rounded=0;orthogonalLoop=1;jettySize=auto;html=1;exitX=0.5;exitY=0.5;exitDx=0;exitDy=0;exitPerimeter=0;entryX=0;entryY=0.5;entryDx=0;entryDy=0;" edge="1" parent="1" source="BphLosTeDJoORmhjXPxz-12" target="BphLosTeDJoORmhjXPxz-10">
          <mxGeometry relative="1" as="geometry">
            <Array as="points">
              <mxPoint x="180" y="680" />
              <mxPoint x="180" y="840" />
            </Array>
          </mxGeometry>
        </mxCell>
        <mxCell id="BphLosTeDJoORmhjXPxz-27" value="+initiate" style="edgeLabel;html=1;align=center;verticalAlign=middle;resizable=0;points=[];" vertex="1" connectable="0" parent="BphLosTeDJoORmhjXPxz-18">
          <mxGeometry x="0.5304" y="2" relative="1" as="geometry">
            <mxPoint y="2" as="offset" />
          </mxGeometry>
        </mxCell>
        <mxCell id="BphLosTeDJoORmhjXPxz-19" style="edgeStyle=orthogonalEdgeStyle;rounded=0;orthogonalLoop=1;jettySize=auto;html=1;exitX=0.5;exitY=0.5;exitDx=0;exitDy=0;exitPerimeter=0;entryX=0;entryY=0.5;entryDx=0;entryDy=0;" edge="1" parent="1" source="BphLosTeDJoORmhjXPxz-12" target="BphLosTeDJoORmhjXPxz-9">
          <mxGeometry relative="1" as="geometry">
            <Array as="points">
              <mxPoint x="180" y="680" />
              <mxPoint x="180" y="760" />
            </Array>
          </mxGeometry>
        </mxCell>
        <mxCell id="BphLosTeDJoORmhjXPxz-26" value="+initiate" style="edgeLabel;html=1;align=center;verticalAlign=middle;resizable=0;points=[];" vertex="1" connectable="0" parent="BphLosTeDJoORmhjXPxz-19">
          <mxGeometry x="0.4264" y="2" relative="1" as="geometry">
            <mxPoint x="-4" y="2" as="offset" />
          </mxGeometry>
        </mxCell>
        <mxCell id="BphLosTeDJoORmhjXPxz-20" style="edgeStyle=orthogonalEdgeStyle;rounded=0;orthogonalLoop=1;jettySize=auto;html=1;exitX=0.5;exitY=0.5;exitDx=0;exitDy=0;exitPerimeter=0;entryX=0;entryY=0.5;entryDx=0;entryDy=0;" edge="1" parent="1" source="BphLosTeDJoORmhjXPxz-12" target="BphLosTeDJoORmhjXPxz-11">
          <mxGeometry relative="1" as="geometry">
            <Array as="points">
              <mxPoint x="180" y="680" />
              <mxPoint x="180" y="920" />
            </Array>
          </mxGeometry>
        </mxCell>
        <mxCell id="BphLosTeDJoORmhjXPxz-28" value="+initiate" style="edgeLabel;html=1;align=center;verticalAlign=middle;resizable=0;points=[];" vertex="1" connectable="0" parent="BphLosTeDJoORmhjXPxz-20">
          <mxGeometry x="0.6047" y="-4" relative="1" as="geometry">
            <mxPoint x="4" y="-4" as="offset" />
          </mxGeometry>
        </mxCell>
        <mxCell id="BphLosTeDJoORmhjXPxz-12" value="Student" style="shape=umlActor;verticalLabelPosition=bottom;verticalAlign=top;html=1;outlineConnect=0;" vertex="1" parent="1">
          <mxGeometry x="110" y="650" width="30" height="60" as="geometry" />
        </mxCell>
        <mxCell id="BphLosTeDJoORmhjXPxz-32" style="edgeStyle=orthogonalEdgeStyle;rounded=0;orthogonalLoop=1;jettySize=auto;html=1;exitX=0.5;exitY=0.5;exitDx=0;exitDy=0;exitPerimeter=0;entryX=0;entryY=0.5;entryDx=0;entryDy=0;" edge="1" parent="1" source="BphLosTeDJoORmhjXPxz-29" target="BphLosTeDJoORmhjXPxz-3">
          <mxGeometry relative="1" as="geometry" />
        </mxCell>
        <mxCell id="BphLosTeDJoORmhjXPxz-34" value="+initiate" style="edgeLabel;html=1;align=center;verticalAlign=middle;resizable=0;points=[];" vertex="1" connectable="0" parent="BphLosTeDJoORmhjXPxz-32">
          <mxGeometry x="0.3532" y="-1" relative="1" as="geometry">
            <mxPoint x="-21" y="-1" as="offset" />
          </mxGeometry>
        </mxCell>
        <mxCell id="BphLosTeDJoORmhjXPxz-29" value="Unregistered student" style="shape=umlActor;verticalLabelPosition=bottom;verticalAlign=top;html=1;outlineConnect=0;" vertex="1" parent="1">
          <mxGeometry x="110" y="250" width="30" height="60" as="geometry" />
        </mxCell>
        <mxCell id="BphLosTeDJoORmhjXPxz-35" value="Login" style="ellipse;whiteSpace=wrap;html=1;fontSize=14;" vertex="1" parent="1">
          <mxGeometry x="720" y="490" width="140" height="60" as="geometry" />
        </mxCell>
        <mxCell id="BphLosTeDJoORmhjXPxz-37" style="edgeStyle=orthogonalEdgeStyle;rounded=0;orthogonalLoop=1;jettySize=auto;html=1;exitX=1;exitY=0.5;exitDx=0;exitDy=0;entryX=0.636;entryY=0;entryDx=0;entryDy=0;entryPerimeter=0;dashed=1;endArrow=openThin;endFill=0;" edge="1" parent="1" source="BphLosTeDJoORmhjXPxz-4" target="BphLosTeDJoORmhjXPxz-35">
          <mxGeometry relative="1" as="geometry" />
        </mxCell>
        <mxCell id="BphLosTeDJoORmhjXPxz-45" value="&amp;lt;&amp;lt;include&amp;gt;&amp;gt;" style="edgeLabel;html=1;align=center;verticalAlign=middle;resizable=0;points=[];" vertex="1" connectable="0" parent="BphLosTeDJoORmhjXPxz-37">
          <mxGeometry x="-0.0339" y="-1" relative="1" as="geometry">
            <mxPoint x="-36" y="-1" as="offset" />
          </mxGeometry>
        </mxCell>
        <mxCell id="BphLosTeDJoORmhjXPxz-41" style="edgeStyle=orthogonalEdgeStyle;rounded=0;orthogonalLoop=1;jettySize=auto;html=1;exitX=1;exitY=0.5;exitDx=0;exitDy=0;entryX=0.293;entryY=1;entryDx=0;entryDy=0;entryPerimeter=0;dashed=1;endArrow=openThin;endFill=0;" edge="1" parent="1" source="BphLosTeDJoORmhjXPxz-8" target="BphLosTeDJoORmhjXPxz-35">
          <mxGeometry relative="1" as="geometry" />
        </mxCell>
        <mxCell id="BphLosTeDJoORmhjXPxz-51" value="&amp;lt;&amp;lt;include&amp;gt;&amp;gt;" style="edgeLabel;html=1;align=center;verticalAlign=middle;resizable=0;points=[];" vertex="1" connectable="0" parent="BphLosTeDJoORmhjXPxz-41">
          <mxGeometry x="0.0718" y="2" relative="1" as="geometry">
            <mxPoint x="-36" as="offset" />
          </mxGeometry>
        </mxCell>
        <mxCell id="BphLosTeDJoORmhjXPxz-43" style="edgeStyle=orthogonalEdgeStyle;rounded=0;orthogonalLoop=1;jettySize=auto;html=1;exitX=1;exitY=0.5;exitDx=0;exitDy=0;entryX=0.686;entryY=1.017;entryDx=0;entryDy=0;entryPerimeter=0;dashed=1;endArrow=openThin;endFill=0;" edge="1" parent="1" source="BphLosTeDJoORmhjXPxz-10" target="BphLosTeDJoORmhjXPxz-35">
          <mxGeometry relative="1" as="geometry" />
        </mxCell>
        <mxCell id="BphLosTeDJoORmhjXPxz-53" value="&amp;lt;&amp;lt;include&amp;gt;&amp;gt;" style="edgeLabel;html=1;align=center;verticalAlign=middle;resizable=0;points=[];" vertex="1" connectable="0" parent="BphLosTeDJoORmhjXPxz-43">
          <mxGeometry x="-0.2306" y="2" relative="1" as="geometry">
            <mxPoint x="-52" y="2" as="offset" />
          </mxGeometry>
        </mxCell>
      </root>
    </mxGraphModel>
  </diagram>
</mxfile>
